<svg xmlns="http://www.w3.org/2000/svg" width="19" height="13" viewBox="0 0 19 13">
  <defs>
    <style>
      .cls-1 {
        fill: #dae3ef;
        fill-rule: evenodd;
      }
    </style>
  </defs>
  <path id="Rounded_Rectangle_5" data-name="Rounded Rectangle 5" class="cls-1" d="M36,1162h3a1,1,0,0,1,1,1v7a1,1,0,0,1-1,1H36a1,1,0,0,1-1-1v-7A1,1,0,0,1,36,1162Zm14,0h3a1,1,0,0,1,1,1v7a1,1,0,0,1-1,1H50a1,1,0,0,1-1-1v-7A1,1,0,0,1,50,1162Zm-7-4h3a1,1,0,0,1,1,1v11a1,1,0,0,1-1,1H43a1,1,0,0,1-1-1v-11A1,1,0,0,1,43,1158Z" transform="translate(-35 -1158)"/>
</svg>
