<svg id="logo" xmlns="http://www.w3.org/2000/svg" width="157.969" height="59.438" viewBox="0 0 157.969 59.438">
  <defs>
    <style>
      .cls-1 {
        fill: #ea4335;
      }

      .cls-1, .cls-2, .cls-3, .cls-4, .cls-5 {
        fill-rule: evenodd;
      }

      .cls-2 {
        fill: #fbbc05;
      }

      .cls-3 {
        fill: #0879c9;
      }

      .cls-4 {
        fill: #34a853;
      }

      .cls-5 {
        fill: #666;
      }
    </style>
  </defs>
  <path id="Фигура_1" data-name="Фигура 1" class="cls-1" d="M167.879,113.53a17.719,17.719,0,0,0-5.177-13.058,18.57,18.57,0,0,0-25.747,0,17.8,17.8,0,0,0-5.131,13.058,16.815,16.815,0,0,0,5.223,12.689,18.774,18.774,0,0,0,25.516,0,17.113,17.113,0,0,0,5.316-12.689m3.976,0a19.042,19.042,0,0,1-6.657,15,23.164,23.164,0,0,1-30.74,0,19.1,19.1,0,0,1-6.61-15q-0.091-9.538,6.472-15.466a23.191,23.191,0,0,1,30.971,0Q171.855,103.992,171.855,113.53Z" transform="translate(-71.656 -75.5)"/>
  <path id="Фигура_1_копия_4" data-name="Фигура 1 копия 4" class="cls-2" d="M150.472,128.232c4.154,0.47,8.821-2.569,10.6-4.375a15.085,15.085,0,0,0-.135-21.182c-1.96-1.932-6.175-4.665-10.467-4.25Z" transform="translate(-71.656 -75.5)"/>
  <path id="Фигура_1_копия_3" data-name="Фигура 1 копия 3" class="cls-3" d="M76.626,134.385H75.088a3.455,3.455,0,0,1-3.438-3.444V105.679a8.59,8.59,0,0,1,.647-3.317,8.743,8.743,0,0,1,1.792-2.724A8.65,8.65,0,0,1,76.76,97.8a8.523,8.523,0,0,1,6.419-.086,9.415,9.415,0,0,1,2.594,1.584,11.211,11.211,0,0,1,2.049,2.372,16.636,16.636,0,0,1,1.511,2.888l7.806,19.253,8.531-20.283a10.26,10.26,0,0,1,3.279-4.769,8.367,8.367,0,0,1,5.236-1.631,7.858,7.858,0,0,1,3.544.788,8.609,8.609,0,0,1,2.719,2.115,9.418,9.418,0,0,1,1.73,3.068,10.855,10.855,0,0,1,.607,3.613v24.232a3.416,3.416,0,0,1-3.437,3.444h-1.538a3.436,3.436,0,0,1-3.438-3.444V114.213a3.5,3.5,0,0,1,.046-0.564v-7.4l-8.265,18.137c-0.546,1.2-1.083,2.3-1.621,3.3a11.628,11.628,0,0,1-1.8,2.56,7.243,7.243,0,0,1-2.306,1.647,7.676,7.676,0,0,1-3.155.585,6.691,6.691,0,0,1-3.054-.694,9.631,9.631,0,0,1-2.493-1.834,13.937,13.937,0,0,1-1.995-2.591,31.135,31.135,0,0,1-1.589-3.02l-8.125-17.771v7.081a3.443,3.443,0,0,1,.047.564v16.728a3.387,3.387,0,0,1-3.438,3.444" transform="translate(-71.656 -75.5)"/>
  <path id="Фигура_1_копия_2" data-name="Фигура 1 копия 2" class="cls-4" d="M128,76.155c0.921,2.646,5.3,8.288,7.84,10.032,3.077,2.108,9.442,3.808,14.112,3.925-0.414-3.408-3.94-9.265-6.738-11.792C139.949,75.371,132.9,74.91,128,76.155m22.54,13.939c5.19,0,9.67-1.885,12.61-5.625a19.939,19.939,0,0,0,2.445-4.013c-4.08-.456-7.453-0.779-10.467,1.544-1.422,1.1-4.322,5.395-4.588,8.093m76.041,32.5v0.056a3.7,3.7,0,0,1,3.051,3.637v1.652a3.7,3.7,0,0,1-3.051,3.637v0.055H223.4a4.627,4.627,0,0,1-8.858,0H193.352a4.316,4.316,0,0,1-4.429,3.288c-2.472,0-4.476-1.721-4.476-3.843a3.356,3.356,0,0,1,.049-0.57,11.7,11.7,0,0,1-2.88-2.074,11.816,11.816,0,0,1-2.4-3.4,9.347,9.347,0,0,1-.911-4.035V100.677a3.7,3.7,0,0,1,3.686-3.692h1.649a3.7,3.7,0,0,1,3.686,3.683v17.28c0,1.111-.1,2.98.751,3.865s2.653,0.784,3.606.785h34.9Z" transform="translate(-71.656 -75.5)"/>
  <path id="Фигура_1_копия" data-name="Фигура 1 копия" class="cls-5" d="M147.992,110.973c-0.533-1.8-3.038-7.052-5.033-5.048-1.911,1.921,3.214,4.805,5.033,5.048m0.146,2.2c-1.7.413-7.231,2.984-5.081,5.05,2.085,2,4.525-3.482,5.081-5.05M147.576,112c-1.323-.524-7.062-3.054-7.062,0,0,3,6.078.859,7.062,0" transform="translate(-71.656 -75.5)"/>
</svg>
